REM MD5 322609c2ed4366a420cd3b3769310f09
FILE "Viewpoint (Europe).bin" BINARY
  TRACK 01 MODE2/2352
    INDEX 01 00:00:00
  TRACK 02 AUDIO
    INDEX 00 50:01:20
    INDEX 01 50:03:20
  TRACK 03 AUDIO
    INDEX 00 52:06:34
    INDEX 01 52:08:34
REM LEADOUT 55:25:00
